<?xml version="1.0" encoding="UTF-8"?>
<svg id="Layer_2" data-name="Layer 2" xmlns="http://www.w3.org/2000/svg" viewBox="0 0 57.83 57.26">
  <defs>
    <style>
      .cls-1, .cls-2, .cls-3 {
        stroke-width: 0px;
      }

      .cls-2 {
        fill: #423f3e;
      }

      .cls-3 {
        fill: #22c55e;
      }
    </style>
  </defs>
  <g id="Layer_1-2" data-name="Layer 1">
    <g>
      <path class="cls-1" d="m34.86,52.83c-1.81-.12-3.63-.63-5.07-1.74-1.76-.72-3.21-1.41-4.74-3.01q-.37-.31-.86-.71c-.5-.42-.96-.82-1.48-1.2-1.05-.74-2.07-1.66-2.82-2.71-.61-.57-1.2-1.17-1.84-1.69-3.68-3.03-7.77-5.03-12.51-5.62-5.61.44-5.78.68-4.53,5.98.65,2.76,1.72,5.31,1.35,8.42-.35,2.98,2.12,4.57,5.1,4.17,1.81-.24,3.22.22,4.83.85,7.61,2.99,15,1.74,22.12-1.69,1.4-.68,1.04-.88.46-1.05Zm-21.08.78c-2.14-.75-4.09-1.98-6.56-1.4-1.5.35-1.53-1.01-1.89-2.04-.57-1.6.23-3.25-.65-4.91-.93-1.78-2.57-4.36-.17-5.78,1.49-.88,4.15-.74,5.97.3,2.71,1.53,5.45,3.18,7.74,5.25,3.21,2.9,6.37,5.84,10.75,8.4-5.55,1.73-10.4,1.85-15.2.18Z"/>
      <path class="cls-2" d="m28.98,53.44c-5.55,1.73-10.4,1.85-15.2.18-2.14-.75-4.09-1.98-6.56-1.4-1.5.35-1.53-1.01-1.89-2.04-.57-1.6.23-3.25-.65-4.91-.93-1.78-2.57-4.36-.17-5.78,1.49-.88,4.15-.74,5.97.3,2.71,1.53,5.45,3.18,7.74,5.25,3.21,2.9,6.37,5.84,10.75,8.4Z"/>
      <path class="cls-1" d="m21.54,5.17c-.12-.02-.73-.08-.88-.12-.11-.03.14-.14.24-.19,1.76-1.1,3.39-2.79,5.29-3.18,7.08-1.47,14.28-3.16,21.23.6,1.08.59,2.01.34,3.1.18,3.03-.43,5.86,1.49,5.45,4.29-.49,3.36.92,6.1,1.48,9.12.26,1.41.26,2.87.37,4.31-4.05,1.58-7.99,1.37-11.88-.61-2.73-1.39-4.95-3.39-7.14-5.49-4.86-4.68-10.17-8.55-17.27-8.92Zm26.3.48l.02.12c-5.8-4.2-12.03-3.78-18.69-1.93,1.26,1.28,2.42,2.03,3.74,2.56,2.94,2.12,5.71,4.42,8.32,6.96,3.06,2.98,6.46,5.39,11.01,5.68,2.73.17,3.38-.9,2.84-3.4-.61-2.83-2.83-5.37-1.59-8.54-.93-4.22-3.73-1.09-5.65-1.44Z"/>
      <path class="cls-3" d="m53.58,7.11c-1.23,3.17.98,5.71,1.59,8.54.28,1.29.24,2.2-.24,2.75-.39.45-1.06.7-2.6.65-3.31-.12-5.79-1.49-6.16-1.7-2.27-1.29-3.54-2.62-4.97-3.98-1.76-1.68-4.34-3.96-7.82-6.46-1.1-.52-1.93-1.05-2.51-1.47-.73-.52-1.87-1.43-1.79-1.57.01-.02.05-.02.06-.02.24.01.23-.12,2.14-.55,1.04-.23,1.85-.38,2.06-.41,1.1-.19,1.8-.31,2.74-.37.17-.01.99-.06,2.09,0,.87.04,2.29.12,4.08.6,1.66.45,2.86,1.04,3.55,1.4.83.42,1.51.83,2,1.15.23.01.58.01,1.01-.06.45-.08.6-.18,1.48-.47.88-.29,1.1-.31,1.32-.29.17.01.52.05.85.28.08.06.28.21.61.85.14.27.32.65.48,1.14Z"/>
      <path class="cls-1" d="m38.61,15.71c-3.22-3.29-6.95-5.74-10.92-7.84-3.32-1.75-6.99-1.37-10.59-.87-3.96,3.15-7.19,6.97-10.17,11.02,3,1.3,6.3.31,9.42,1.42,5.54,1.98,10.17,5.23,14.53,9.02.36.21.72.43,1.05.71.17.15.35.3.52.45.31.18.57.47.81.76.17.17.33.36.48.55.08.08.16.16.24.22,5.32,4.19,10.95,7.42,18.08,6.56.23,0,.33-.06.45-.18.33-.44.66-.88.99-1.32,2.17-4.6,4.13-9.27,4.33-14.45-7.76,2.3-13.97-.69-19.22-6.05Zm15.26,13.85c-1.24,3.22-2.58,5.11-4.39,5.79-1.11.42-2.13.26-3.1.12-2.14-.31-3.64-1.3-4.27-1.73-4.97-3.39-7.5-5.03-8.57-6.02-5.65-5.2-11.89-9.47-19.51-11.31-.79-.2-2.75.67-1.39-1.5,3.71-5.91,8.77-7.32,15.02-4.2,3.92,1.26,6.71,4.18,9.58,6.87,4.46,4.19,9.29,7.35,15.69,7.09,2.03-.08,2.23.91,1.74,2.49-.25.81-.51,1.61-.81,2.4Z"/>
      <path class="cls-2" d="m12.21,15.84c.02-.07.05-.17.11-.3.13-.32.25-.46.61-1.02.17-.27.15-.25.25-.4.19-.28.36-.5.48-.65.24-.31.51-.64.82-.98.26-.28.51-.54.76-.77.25-.23.53-.48.85-.72.25-.19.49-.36.72-.5.28-.18.61-.37.99-.54.46-.22.89-.38,1.28-.49.35-.1.77-.2,1.23-.27.49-.07.94-.1,1.33-.09.29,0,.67.01,1.1.06.58.06,1.01.15,1.24.21,1.08.24,2.05.61,2.63.85.13.05.33.14.53.23.11.05.28.13.3.14.08.04.11.05.13.06.05.03.06.03.1.05.03.01.05.02.12.04.04.01.08.03.12.04.13.04.26.09.27.09.13.04.39.14.68.27.25.11.58.26.99.47.24.13.49.26.75.41.3.18.59.36.86.54.45.31.93.65,1.41,1.03.64.5,1.23,1,1.75,1.49.89.84,1.78,1.67,2.67,2.51.72.69,1.52,1.4,2.4,2.11.63.5,1.24.96,1.83,1.38.41.29.86.59,1.35.88.45.27.89.51,1.3.73.48.25,1.01.5,1.6.74.52.21,1.02.38,1.48.53.5.15,1.06.3,1.67.42.52.1,1,.17,1.45.22.41.04.86.08,1.33.09.44.01.86,0,1.25,0,.13,0,.29-.01.47,0,.13,0,.28.02.48.06.15.03.29.07.45.16.11.06.18.13.24.17.05.05.12.12.18.23.05.09.07.17.09.23.03.11.05.22.05.36,0,.33-.06.66-.09.8-.1.37-.22.75-.34,1.14-.1.33-.21.65-.32.96-.13.39-.28.79-.45,1.2-.17.43-.35.83-.53,1.21-.16.35-.35.73-.58,1.13-.2.34-.4.65-.59.92-.14.21-.28.38-.4.52-.19.23-.35.38-.45.48-.14.14-.27.27-.47.42-.19.15-.37.26-.49.34-.3.17-.72.38-1.26.51-.73.17-1.32.12-1.72.08-.36-.03-.69-.1-1.14-.19-.41-.08-.63-.14-.7-.15-.4-.1-.71-.21-.89-.28-.31-.12-.61-.25-.98-.44-.73-.37-1.41-.78-1.95-1.12-1.16-.71-2.32-1.43-3.49-2.14l-3.25-2.45-2.23-1.98-3.54-2.94-2.39-1.73c-.49-.34-1.01-.67-1.55-1.01-.42-.26-.83-.51-1.23-.74-.47-.28-.98-.56-1.5-.84-.57-.3-1.13-.57-1.66-.82-.49-.23-1-.46-1.54-.68-.54-.22-1.06-.42-1.57-.6-1.1-.33-2.2-.67-3.3-1-.38-.1-.68-.1-.89-.08-.17.01-.36.05-.65.03-.39-.03-.49-.12-.52-.19-.03-.06-.04-.15-.04-.21,0-.07.01-.13.02-.17Z"/>
      <path class="cls-1" d="m30.65,30.76s-.01,0-.02-.01c-.45-.31-.89-.66-1.33-.98-.78-.58-1.61-1.1-2.27-1.82-.02-.02-.02-.04-.03-.05-.73-.65-1.39-1.38-2.18-1.93-6.16-4.38-12.67-7.36-20.49-5.98-1.92,3.47-3.22,7.13-4.09,11.02-.67,2.99-.05,4,2.96,3.14,5.82-.78,15.09,3.73,18.25,8.51.17.11.34.21.5.34.51.42.74.64,1.13.95.18.15.37.29.55.43.21.25.43.33.6.55.1.11.2.22.28.35.05.05.1.1.15.15,2.58,2.21,5.48,3.79,8.73,4.76,3.33.87,6.08-.09,8.57-2.44,2.72-2.57,5.45-5.11,7.72-8.11-7.34-.81-13.69-3.76-19.05-8.84Zm-3.73,13.51c-3.3-2.4-5.97-5.62-9.35-8.01-4.07-2.87-8.49-4.54-13.47-4.74-1.34.17-1.29-.65-1.15-1.59,1.13-7.47,4.07-9.31,11.3-7.03.91.29,1.76.76,2.64,1.15,3.89,1.74,7.39,4.09,10.54,6.94,5.07,4.59,10.49,8.56,17.37,10.11-6.41,8.52-9.72,9.08-17.89,3.16Z"/>
      <path class="cls-3" d="m6.61,22.6c.4-.19.95-.4,1.64-.52.82-.15,1.52-.11,2-.04.64.03,1.39.12,2.23.31.97.22,1.79.52,2.44.81.87.33,1.79.72,2.76,1.21.59.3,1.14.6,1.66.9.78.34,1.68.79,2.63,1.4.92.59,1.7,1.2,2.32,1.75.59.4,1.21.86,1.85,1.4.57.48,1.08.95,1.54,1.41,1.54,1.28,3.08,2.55,4.62,3.83l2.65,1.84,3.09,1.77,3.18,1.39,3.58,1.06-1.93,2.42c-.51.69-1.22,1.51-2.17,2.32-.82.7-1.62,1.22-2.29,1.59-.46.25-1.26.6-2.3.71-1.08.12-1.95-.07-2.46-.21-.82-.18-1.9-.51-3.07-1.12-1.18-.61-2.07-1.31-2.69-1.87-.93-.65-1.92-1.4-2.92-2.24-.68-.58-1.31-1.15-1.89-1.71-1.39-1.25-2.78-2.49-4.18-3.74l-5.46-3.43-2.85-1.14-2.94-.76-2.33-.32c-.49.1-1.18.14-1.9-.13-.1-.04-.2-.08-.29-.12-.08-.11-.18-.29-.23-.51-.06-.29,0-.52.07-.79.06-.27.13-.65.16-1.13.09-.52.21-1.08.39-1.69.2-.7.43-1.31.66-1.85.17-.41.48-1,1-1.59.52-.59,1.06-.97,1.44-1.19Z"/>
    </g>
  </g>
</svg>